<?xml version="1.0" encoding="UTF-8"?><svg id="Calque_2" xmlns="http://www.w3.org/2000/svg" viewBox="0 0 135.18 107.33"><defs><style>.cls-1{fill:#fff;}.cls-1,.cls-2{stroke-width:0px;}.cls-2{fill:#ea5c9c;}</style></defs><g id="Calque_1-2"><path class="cls-2" d="M50.09,98.56c3.3,2.2,6.32,4.82,9.47,7.25-.09.14-.17.28-.26.43-.46-.15-.93-.3-1.39-.47-12.8-4.62-25.97-6.08-39.45-4.18-3.68.52-7.29,1.5-10.93,2.28V25.36c2.11-.57,4.22-1.12,6.45-1.72v60.33c0,3.74.72,4.5,4.49,4.61,11.5.33,22.07,3.61,31.61,9.98Z"/><path class="cls-2" d="M68.51,35.59c.04,23.5.03,46.99.03,70.5v1.24c-13.04-15-29.18-23.04-48.56-24.43V6.37c4.12.79,8.08,1.31,11.9,2.34,14.99,4.02,26.98,12.45,36,25.08.36.5.63,1.2.63,1.8Z"/><path class="cls-2" d="M122.87,82.89c-19.44,1.43-35.56,9.45-48.47,24.32-.03-.59-.08-.97-.08-1.36,0-23.4,0-46.78.03-70.17,0-.64.24-1.39.62-1.92,9.12-12.93,21.39-21.36,36.7-25.32,2.6-.67,5.28-1.04,7.94-1.48,1.05-.18,2.13-.2,3.27-.29v76.21Z"/><path class="cls-2" d="M135.14,26.22c.08.19.02.41.02.62v76.92c-17.56-4.61-34.75-3.74-51.8,2.42.62-.61,1.24-1.22,1.87-1.8.64-.59,1.3-1.16,1.97-1.72,10.8-8.87,23.14-13.61,37.13-14.01.66-.02,1.33-.06,1.97-.19,1.35-.28,2.18-1.18,2.35-2.55.07-.5.05-1,.05-1.5V23.65c2.12.64,4.07,1.22,5.98,1.85.22.07.36.46.46.72Z"/><path class="cls-1" d="M42.55,92.19c3.3,2.2,6.32,4.82,9.47,7.25-.09.14-.17.28-.26.43-.46-.15-.93-.3-1.39-.47-12.8-4.62-25.97-6.08-39.45-4.18-3.68.52-7.29,1.5-10.93,2.28V18.99c2.11-.57,4.22-1.12,6.45-1.72v60.33c0,3.74.72,4.5,4.49,4.61,11.5.33,22.07,3.61,31.61,9.98Z"/><path class="cls-1" d="M60.97,29.21c.04,23.5.03,46.99.03,70.5v1.24c-13.04-15-29.18-23.04-48.56-24.43V0c4.12.79,8.08,1.31,11.9,2.34,14.99,4.02,26.98,12.45,36,25.08.36.5.63,1.2.63,1.8Z"/><path class="cls-1" d="M115.33,76.52c-19.44,1.43-35.56,9.45-48.47,24.32-.03-.59-.08-.97-.08-1.36,0-23.4,0-46.78.03-70.17,0-.64.24-1.39.62-1.92,9.12-12.93,21.39-21.36,36.7-25.32,2.6-.67,5.28-1.04,7.94-1.48,1.05-.18,2.13-.2,3.27-.29v76.21Z"/><path class="cls-1" d="M127.6,19.85c.08.19.02.41.02.62v76.92c-17.56-4.61-34.75-3.74-51.8,2.42.62-.61,1.24-1.22,1.87-1.8.64-.59,1.3-1.16,1.97-1.72,10.8-8.87,23.14-13.61,37.13-14.01.66-.02,1.33-.06,1.97-.19,1.35-.28,2.18-1.18,2.35-2.55.07-.5.05-1,.05-1.5V17.27c2.12.64,4.07,1.22,5.98,1.85.22.07.36.46.46.72Z"/></g></svg>