<?xml version="1.0" encoding="UTF-8"?><svg id="Calque_2" xmlns="http://www.w3.org/2000/svg" viewBox="0 0 125.24 123.49"><defs><style>.cls-1{fill:#fff;}.cls-1,.cls-2{stroke-width:0px;}.cls-2{fill:#ea5c9c;}</style></defs><g id="Calque_1-2"><path class="cls-2" d="M65.93,4.86C33.17,4.86,6.62,31.42,6.62,64.18s26.56,59.31,59.31,59.31,59.31-26.56,59.31-59.31S98.69,4.86,65.93,4.86ZM103.53,38.69h-10.81c-1.24-5.22-2.86-10.01-4.77-14.25,3.66,2.03,7.05,4.59,10.1,7.63,2.06,2.06,3.89,4.27,5.49,6.62ZM111.34,64.18c0,3.96-.51,7.85-1.49,11.58h-14.84c.37-3.75.57-7.62.57-11.58s-.2-7.84-.57-11.58h14.84c.98,3.74,1.49,7.62,1.49,11.58ZM65.93,109.59c-1.2,0-4.88-2.37-8.54-9.69-1.52-3.03-2.82-6.49-3.88-10.24h24.84c-1.06,3.75-2.37,7.21-3.88,10.24-3.66,7.32-7.33,9.69-8.54,9.69ZM50.83,75.76c-.43-3.76-.65-7.65-.65-11.58s.22-7.82.65-11.58h30.21c.43,3.76.65,7.65.65,11.58s-.22,7.82-.65,11.58h-30.21ZM20.52,64.18c0-3.96.51-7.85,1.49-11.58h14.84c-.37,3.75-.57,7.62-.57,11.58s.2,7.84.57,11.58h-14.84c-.98-3.74-1.49-7.62-1.49-11.58ZM65.93,18.77c1.2,0,4.88,2.37,8.54,9.69,1.52,3.03,2.82,6.49,3.88,10.24h-24.84c1.06-3.75,2.37-7.21,3.88-10.24,3.66-7.32,7.33-9.69,8.54-9.69ZM43.91,24.44c-1.91,4.24-3.53,9.04-4.77,14.25h-10.81c1.6-2.35,3.43-4.57,5.49-6.62,3.04-3.04,6.44-5.59,10.1-7.63ZM28.33,89.66h10.81c1.24,5.22,2.86,10.01,4.77,14.25-3.66-2.03-7.05-4.59-10.1-7.63-2.06-2.06-3.89-4.27-5.49-6.62ZM87.95,103.92c1.91-4.24,3.53-9.04,4.77-14.25h10.81c-1.6,2.35-3.43,4.57-5.49,6.62-3.04,3.04-6.44,5.59-10.1,7.63Z"/><path class="cls-1" d="M59.31,0C26.56,0,0,26.56,0,59.31s26.56,59.31,59.31,59.31,59.31-26.56,59.31-59.31S92.07,0,59.31,0ZM96.91,33.83h-10.81c-1.24-5.22-2.86-10.01-4.77-14.25,3.66,2.03,7.05,4.59,10.1,7.63,2.06,2.06,3.89,4.27,5.49,6.62ZM104.73,59.31c0,3.96-.51,7.85-1.49,11.58h-14.84c.37-3.75.57-7.62.57-11.58s-.2-7.84-.57-11.58h14.84c.98,3.74,1.49,7.62,1.49,11.58ZM59.31,104.73c-1.2,0-4.88-2.37-8.54-9.69-1.52-3.03-2.82-6.49-3.88-10.24h24.84c-1.06,3.75-2.37,7.21-3.88,10.24-3.66,7.32-7.33,9.69-8.54,9.69ZM44.21,70.9c-.43-3.76-.65-7.65-.65-11.58s.22-7.82.65-11.58h30.21c.43,3.76.65,7.65.65,11.58s-.22,7.82-.65,11.58h-30.21ZM13.9,59.31c0-3.96.51-7.85,1.49-11.58h14.84c-.37,3.75-.57,7.62-.57,11.58s.2,7.84.57,11.58h-14.84c-.98-3.74-1.49-7.62-1.49-11.58ZM59.31,13.9c1.2,0,4.88,2.37,8.54,9.69,1.52,3.03,2.82,6.49,3.88,10.24h-24.84c1.06-3.75,2.37-7.21,3.88-10.24,3.66-7.32,7.33-9.69,8.54-9.69ZM37.3,19.57c-1.91,4.24-3.53,9.04-4.77,14.25h-10.81c1.6-2.35,3.43-4.57,5.49-6.62,3.04-3.04,6.44-5.59,10.1-7.63ZM21.72,84.8h10.81c1.24,5.22,2.86,10.01,4.77,14.25-3.66-2.03-7.05-4.59-10.1-7.63-2.06-2.06-3.89-4.27-5.49-6.62ZM81.33,99.05c1.91-4.24,3.53-9.04,4.77-14.25h10.81c-1.6,2.35-3.43,4.57-5.49,6.62-3.04,3.04-6.44,5.59-10.1,7.63Z"/></g></svg>