<?xml version="1.0" encoding="UTF-8"?><svg id="Calque_2" xmlns="http://www.w3.org/2000/svg" viewBox="0 0 123.1 121.94"><defs><style>.cls-1{fill:#fff;}.cls-1,.cls-2{stroke-width:0px;}.cls-2{fill:#ea5c9c;}</style></defs><g id="Calque_1-2"><path class="cls-2" d="M88.94,40.96h.08c.8,0,1.55.25,2.16.68h-.01c.45.38.74.92.82,1.54h0c.08.48.12,1.02.12,1.57,0,.25,0,.49-.03.74v-.03c-.86,9.09-4.61,31.13-6.51,41.31-.81,4.31-2.39,5.75-3.93,5.89-3.33.31-5.87-2.2-9.1-4.32-5.06-3.32-7.92-5.38-12.82-8.62-5.67-3.73-2-5.79,1.24-9.15.85-.88,15.55-14.25,15.83-15.47.02-.07.02-.15.02-.24,0-.3-.11-.57-.29-.78h0c-.2-.13-.45-.2-.71-.2-.17,0-.34.03-.49.09h0c-.51.11-8.58,5.45-24.23,16.01-1.71,1.35-3.86,2.2-6.21,2.3h-.02c-3.33-.4-6.35-1.14-9.21-2.2l.28.09c-3.6-1.17-6.46-1.79-6.21-3.78.13-1.03,1.56-2.09,4.27-3.17,16.75-7.3,27.92-12.11,33.51-14.43,6.17-3.27,13.31-5.97,20.83-7.71l.6-.12h0ZM65.18,6.37c-31.85.08-57.65,25.92-57.65,57.78s25.87,57.78,57.78,57.78,57.78-25.87,57.78-57.78S97.31,6.45,65.46,6.37h-.28Z"/><path class="cls-1" d="M81.4,34.59h.08c.8,0,1.55.25,2.16.68h-.01c.45.38.74.92.82,1.54h0c.08.48.12,1.02.12,1.57,0,.25,0,.49-.03.74v-.03c-.86,9.09-4.61,31.13-6.51,41.31-.81,4.31-2.39,5.75-3.93,5.89-3.33.31-5.87-2.2-9.1-4.32-5.06-3.32-7.92-5.38-12.82-8.62-5.67-3.73-2-5.79,1.24-9.15.85-.88,15.55-14.25,15.83-15.47.02-.07.02-.15.02-.24,0-.3-.11-.57-.29-.78h0c-.2-.13-.45-.2-.71-.2-.17,0-.34.03-.49.09h0c-.51.11-8.58,5.45-24.23,16.01-1.71,1.35-3.86,2.2-6.21,2.3h-.02c-3.33-.4-6.35-1.14-9.21-2.2l.28.09c-3.6-1.17-6.46-1.79-6.21-3.78.13-1.03,1.56-2.09,4.27-3.17,16.75-7.3,27.92-12.11,33.51-14.43,6.17-3.27,13.31-5.97,20.83-7.71l.6-.12h0ZM57.65,0C25.79.08,0,25.92,0,57.78s25.87,57.78,57.78,57.78,57.78-25.87,57.78-57.78S89.77.08,57.92,0h-.28Z"/></g></svg>