<?xml version="1.0" encoding="UTF-8"?><svg id="Calque_2" xmlns="http://www.w3.org/2000/svg" viewBox="0 0 126.76 125.59"><defs><style>.cls-1{fill:#fff;}.cls-1,.cls-2{stroke-width:0px;}.cls-2{fill:#ea5c9c;}</style></defs><g id="Calque_1-2"><path class="cls-2" d="M95.75,74.88c-.23-.11-8.92-4.39-10.47-4.95-.63-.23-1.31-.45-2.02-.45-1.17,0-2.16.58-2.93,1.73-.87,1.29-3.5,4.36-4.31,5.28-.11.12-.25.27-.34.27-.08,0-1.42-.55-1.83-.73-9.32-4.05-16.4-13.79-17.37-15.43-.14-.24-.14-.34-.15-.34.03-.13.35-.44.51-.6.47-.47.99-1.09,1.48-1.68.23-.28.47-.57.7-.83.72-.84,1.04-1.49,1.41-2.24l.19-.39c.91-1.8.13-3.32-.12-3.82-.21-.41-3.88-9.27-4.27-10.2-.94-2.25-2.18-3.29-3.9-3.29-.16,0,0,0-.67.03-.82.03-5.26.62-7.23,1.86-2.08,1.31-5.61,5.5-5.61,12.87,0,6.63,4.21,12.89,6.01,15.27.04.06.13.18.25.36,6.92,10.1,15.54,17.59,24.29,21.08,8.42,3.36,12.4,3.75,14.67,3.75h0c.95,0,1.71-.07,2.39-.14l.43-.04c2.91-.26,9.3-3.57,10.75-7.61,1.14-3.18,1.45-6.66.69-7.92-.52-.86-1.42-1.29-2.56-1.84Z"/><path class="cls-2" d="M68.21,6.37c-32.29,0-58.56,26.07-58.56,58.12,0,10.36,2.77,20.51,8.03,29.39l-10.06,29.67c-.19.55-.05,1.16.36,1.58.3.3.7.46,1.11.46.16,0,.31-.02.47-.07l30.94-9.83c8.47,4.52,18.03,6.91,27.72,6.91,32.29,0,58.55-26.07,58.55-58.11S100.49,6.37,68.21,6.37ZM68.21,110.5c-9.11,0-17.94-2.63-25.52-7.61-.26-.17-.55-.25-.85-.25-.16,0-.32.02-.47.07l-15.5,4.93,5-14.76c.16-.48.08-1-.22-1.41-5.78-7.89-8.83-17.22-8.83-26.97,0-25.37,20.81-46.01,46.38-46.01s46.38,20.64,46.38,46.01c0,25.37-20.8,46.01-46.38,46.01Z"/><path class="cls-1" d="M88.22,68.51c-.23-.11-8.92-4.39-10.47-4.95-.63-.23-1.31-.45-2.02-.45-1.17,0-2.16.58-2.93,1.73-.87,1.29-3.5,4.36-4.31,5.28-.11.12-.25.27-.34.27-.08,0-1.42-.55-1.83-.73-9.32-4.05-16.4-13.79-17.37-15.43-.14-.24-.14-.34-.15-.34.03-.13.35-.44.51-.6.47-.47.99-1.09,1.48-1.68.23-.28.47-.57.7-.83.72-.84,1.04-1.49,1.41-2.24l.19-.39c.91-1.8.13-3.32-.12-3.82-.21-.41-3.88-9.27-4.27-10.2-.94-2.25-2.18-3.29-3.9-3.29-.16,0,0,0-.67.03-.82.03-5.26.62-7.23,1.86-2.08,1.31-5.61,5.5-5.61,12.87,0,6.63,4.21,12.89,6.01,15.27.04.06.13.18.25.36,6.92,10.1,15.54,17.59,24.29,21.08,8.42,3.36,12.4,3.75,14.67,3.75h0c.95,0,1.71-.07,2.39-.14l.43-.04c2.91-.26,9.3-3.57,10.75-7.61,1.14-3.18,1.45-6.66.69-7.92-.52-.86-1.42-1.29-2.56-1.84Z"/><path class="cls-1" d="M60.67,0C28.38,0,2.11,26.07,2.11,58.12c0,10.36,2.77,20.51,8.03,29.39L.08,117.18c-.19.55-.05,1.16.36,1.58.3.3.7.46,1.11.46.16,0,.31-.02.47-.07l30.94-9.83c8.47,4.52,18.03,6.91,27.72,6.91,32.29,0,58.55-26.07,58.55-58.11S92.96,0,60.67,0ZM60.67,104.12c-9.11,0-17.94-2.63-25.52-7.61-.26-.17-.55-.25-.85-.25-.16,0-.32.02-.47.07l-15.5,4.93,5-14.76c.16-.48.08-1-.22-1.41-5.78-7.89-8.83-17.22-8.83-26.97,0-25.37,20.81-46.01,46.38-46.01s46.38,20.64,46.38,46.01c0,25.37-20.8,46.01-46.38,46.01Z"/></g></svg>