<?xml version="1.0" encoding="UTF-8"?><svg id="Calque_2" xmlns="http://www.w3.org/2000/svg" viewBox="0 0 343.21 343.21"><defs><style>.cls-1{fill:#c1d886;}.cls-1,.cls-2,.cls-3,.cls-4,.cls-5{stroke-width:0px;}.cls-3{fill:#fff;}.cls-4{fill:#ec73a8;}.cls-5{fill:#ea5c9c;}</style></defs><g id="Calque_1-2"><circle class="cls-3" cx="171.61" cy="171.61" r="153.73"/><path class="cls-1" d="M155.04,167.97c3.06,0,5.32.84,6.75,2.53,1.26,1.47,1.89,3.53,1.89,6.17v42.24c0,2.58-.98,4.76-2.94,6.55l4.07,15.92h-5.95l-3.34-13.74h-3.67v13.74h-5.5v-73.41h8.67ZM158.33,176.76c0-2.11-1.05-3.17-3.14-3.17h-3.32v48.61h3.32c.87,0,1.61-.31,2.22-.93.61-.62.92-1.37.92-2.24v-42.27Z"/><path class="cls-1" d="M175.04,241.19h-5.5v-73.22h5.5v73.22Z"/><path class="cls-1" d="M212.49,252.91c-2.42,0-4.49-.85-6.18-2.56-1.7-1.71-2.55-3.76-2.55-6.14v-71.99c0-2.42.85-4.49,2.56-6.19,1.71-1.7,3.77-2.54,6.17-2.54s4.48.85,6.17,2.56c1.69,1.71,2.53,3.76,2.53,6.17v4.16h-5.71v-4.28c0-.87-.31-1.62-.93-2.24-.62-.62-1.37-.93-2.24-.93s-1.61.31-2.23.93c-.61.62-.91,1.37-.91,2.24v72.05c0,.87.3,1.61.91,2.22s1.35.92,2.23.92,1.62-.3,2.24-.91.93-1.35.93-2.22v-59.25h-3.05v-5.53h8.76v64.83c0,2.43-.85,4.48-2.56,6.17-1.71,1.69-3.76,2.53-6.14,2.53Z"/><path class="cls-1" d="M139.07,166.43c-1.68-1.71-3.72-2.56-6.13-2.56h-4.59c-1.66,0-5.8-1.63-5.8-1.63,0,0,1.75,7.53,1.75,9.4v72.36c0,4.77,3.87,8.64,8.64,8.64,2.39,0,4.43-.85,6.11-2.56,1.69-1.71,2.53-3.77,2.53-6.17v-71.34c0-2.38-.84-4.43-2.52-6.14ZM136.23,244.02c0,.85-.3,1.59-.9,2.22-.6.63-1.34.95-2.21.95h0c-1.83,0-3.32-1.49-3.32-3.32v-74.39h3.32c.85,0,1.58.31,2.2.93.61.62.91,1.37.91,2.24v71.36Z"/><path class="cls-1" d="M180.23,241.22v-73.11h9.64c3.41,0,5.91.94,7.51,2.81,1.4,1.64,2.1,3.93,2.1,6.86l.03,63.35h-5.98v-63.26c0-2.35-1.16-3.52-3.49-3.52h-3.69v66.81l-6.12.06Z"/><polygon class="cls-2" points="133.98 135.11 155.62 138.23 155.41 135.11 133.98 135.11"/><path class="cls-2" d="M151.16,259.06c2.55-1.52,3.24-4.76,3.24-4.76-2.94,2.48-3.55,4.54-3.24,4.76Z"/><path class="cls-2" d="M183.54,254.93c-.86,2.12.58,3.06.58,3.06l1.26-4.28s-.99-.91-1.84,1.21Z"/><path class="cls-2" d="M172.63,256.76c-1.37,2.77.71,1.3,1.86-1.1,1.15-2.39,1.19-2.58,1.19-2.58,0,0-1.18-.12-3.05,3.68Z"/><path class="cls-2" d="M155.42,227.72h-3.67v5.28c.3-.06.6-.11.89-.14,1.64-.16,3.01-.02,4.12.36l-1.34-5.51Z"/><path class="cls-2" d="M157.3,221.33c.61-.62.92-1.37.92-2.24v-42.33c0-2.12-1.05-3.18-3.15-3.18h-3.32v48.69h3.32c.87,0,1.62-.31,2.23-.94Z"/><path class="cls-2" d="M172.11,30.65c-77.88,0-141.02,63.14-141.02,141.02s63.14,141.02,141.02,141.02,141.02-63.14,141.02-141.02S249.99,30.65,172.11,30.65ZM200.92,91.78c-.19,1.08-.81,2.09-1.06,2.4-2.9-1.51-5.88-4.37-6.27-6.55-.31-1.74.42-3.67,5.92-5.49,1.15-.38,2.31-.81,3.23-1.59.92-.78,1.61-1.89,1.7-3.1,0,0-.9,3.39-5.53,4.49-.38-2.47-4.83-1.66-5.71-6.33-1.68-8.96,7.56-9.92,11.12-10.69,3.55-.76,7.27-.09,10.72,1.07,2.55.86,5.06,2.03,7.03,3.87,1.97,1.84,3.34,4.44,3.23,7.14,0,0-1.43-1.36-4.77-2.12-3.34-.76-6.58.35-6.58.35,0,0-3.59,1.32-5.31,4-1.72,2.68-2.18,5.26-.46,8.35,1.72,3.09,4.99,3.65,8.34,2.25,3.72-1.56,3.96-4.86,3.61-5.77-.35-.91-.59-1.79-2.6-1.62.78.17,1.54.34,1.8,1.06s.08,1.54-.23,2.24c-.72,1.66-2.21,2.98-3.97,3.44s-3.73,0-5.07-1.22c-1.62-1.48-2.14-3.95-1.56-6.06s2.16-3.87,4.06-4.98c3.5-2.04,8.16-1.89,11.52.39,1.24.84,2.31,1.95,2.97,3.3,1.54,3.14.59,7.05-1.49,9.85-2.08,2.81-6.63,7.09-8.66,7.11,1.99-1.57,3.47-4.5,3.47-4.5-2.16,2.9-4.61,6-8.13,6.84-2.29.55-4.74.06-7.02.63-3.28.82-5.79,4.03-5.81,7.41-.02,2.9,1.6,5.65,1.46,8.55-.07,1.48-.6,2.9-1.36,4.18-1.47,2.48-4.25,4.35-7.7,5.3,1.83-2.09,2.34-4.03,2.34-4.03-1.75,2.45-3.6,4.87-5.89,6.82-2.29,1.95-5.08,3.43-8.08,3.7-.7.06-1.42.06-2.09.29-1.9.66-2.79,3.83-3.14,4.86.2-1.8-.49-4.69,1.58-5.9,1.23-.72,2.69-.92,4.03-1.43,2.86-1.1,4.91-3.64,6.58-6.22.89-1.37,1.73-2.82,2.11-4.41.65-2.7-.06-5.51-.38-8.27-.27-2.29-.26-4.61.01-6.9.26-2.16.87-4.47,2.57-5.82,2.01-1.6,5-1.37,7.14-2.8,2.2-1.48,3-3.8,2.46-6.06,0,0,.09.8-.12,2ZM216.15,124.77l-16.89-1.7s3.69-2.58,2.43-9.01l9.05-8.22,9.15,9.46-5.1,5.2,1.35,4.26ZM195.92,248.46c-.97.17-2.14-1.08-2.3-2.04-.17-.97.48-1.89,1.45-2.05.97-.17,1.89.48,2.05,1.45.17.97-1.9,2.19-1.2,2.64ZM193.46,241.23v-63.36c0-2.35-1.16-3.53-3.49-3.53h-3.69v66.92s-6.13.06-6.13.06v-73.23h9.66c3.41,0,5.92.94,7.52,2.82,1.4,1.64,2.1,3.93,2.1,6.87l.03,63.46h-5.99ZM107.57,105.22c2.7-2.29,5.15.62,5.15.62,9.36,8.32,28.97,29.12,41.03,21.01,8.29-5.58,6.86,1.25,6.86,1.25,0,0-3.54,18.72-14.35,18.93-10.82.21-34.95-25.38-34.95-25.38v-9.57c-2.91-.42-6.45-4.58-3.74-6.86ZM137.94,115.62c2.5,0,2.29-3.12,2.29-3.12l3.54.21s0,6.24-5.41,6.86c-5.41.62-6.86-7.07-6.86-7.07h4.37s-.42,3.12,2.08,3.12ZM157.28,115.83c2.08,0,1.25-3.95,1.25-3.95l3.54-.42s.83,6.45-3.74,7.9c-4.58,1.46-4.78-6.45-4.78-6.45l2.08-.21s-.42,3.12,1.66,3.12ZM159,135.31l15.3,1-.15,2.32-16.14-.97.99-2.35ZM187.94,116.67c.1,1.37-.11,3.91-1.47,5.62-1.98-.2-20.86-1.89-20.86-1.89l.73-12.48,20.89-.74c-.52,3.56.62,8.12.72,9.49ZM169.44,167.95h5.51v73.34h-5.51v-73.34ZM105.77,84.25l25.82,5.37,25.59-3.12-24.34-.31-19.06-5.95,2.26-2.31,4.84-4.94-.62-11.02h9.98l21.01,3.54,7.7-.42-25.38-3.95-4.58-.62s1.66-2.7,5.41-2.5c3.74.21,24.13,3.74,24.13,3.74,0,0,3.54.21,7.7,12.06,6.45-1.66,11.44-1.25,11.44-1.25,0,0,7.07,1.46,13.73,10.61-.42,14.35-21.01,20.18-21.01,20.18,0,0-7.28,2.91-30.58,4.58-23.3,1.66-44.72-14.14-44.72-14.14l-6.03-4.58,16.71-4.95ZM88.43,166.17l6.24-11.86-11.65-9.64,18.93-40.07,2.29.21,15.77,180.13-31.58-118.77ZM142.99,262.3l-1.31,6.45s-.74,4.39-1.11,6.2c-.37,1.81-1.03,3.65-1.03,3.65,0,0-.41.99-1.23.7-.82-.29-1.03-1.19-.9-2.75.12-1.56,3.24-15.76,3.24-15.76,0,0-1.4,1.72-2.01,1.68-.62-.04-1.23-2.71.29-4.84,1.52-2.13,3.16-4.02,3.16-4.02,0,0,1.64-9.24,1.97-10.51.33-1.27.66-2.22.66-2.22,0,0-1.58,1.32-3.26,2.74v.4c0,2.41-.85,4.47-2.54,6.18-1.69,1.71-3.73,2.57-6.12,2.57-4.78,0-8.66-3.88-8.66-8.66v-72.48c0-1.87-1.75-9.41-1.75-9.41,0,0,4.14,1.63,5.81,1.63h4.6c2.41,0,4.46.86,6.14,2.57,1.68,1.71,2.52,3.76,2.52,6.15v66.39c1.48-1.27,3.12-2.51,4.79-3.55v-67.44h8.69c3.07,0,5.32.85,6.76,2.54,1.26,1.48,1.89,3.54,1.89,6.18v42.31c0,2.58-.98,4.77-2.94,6.56l4.08,15.95h-4.83c-.86,2.17-3,4.18-5.49,6.29-3.32,2.81-7.29,5.76-10.39,8.99-.49,2.87-1.03,5.54-1.03,5.54ZM158.5,262.05c-1.09-.08-2.09-3.43-2.44-4.74-.25,1.01-2.63,3.9-2.63,3.9,0,0-2.34,2.77-4.02,1.6-1.68-1.17-1.58-4.97,1.48-8.74,3.06-3.78,4.97-3.61,4.97-3.61.51-2.01,1.13-1.68,1.13-1.68,0,0,1.44.37,1.38,3.57-.06,3.2,1.62,7.59,1.62,7.59,0,0-.39,2.2-1.48,2.11ZM180.64,260.12c-.04.71-.48,2.4-1.78,2.38-1.3-.02-2.86-4.34-2.86-4.34,0,0-.19.73-1.69,3.16-2.32,3.75-6.77,3.28-7.71,1.38-.94-1.9-.09-5.19-.09-5.19,0,0,.27-1.45.37-2.52.05-.54-.1-.69-.3-.72-.19-.04-.43.03-.43.03,0,0-.8.12-1.62.34-.79.22-1.59.54-1.78.59-.38.11-.35.36-.35.36,0,0,.02.78-.09,2.58-.03.55-.03.92-.14,1.22-.2.54-.56.68-.78.76-.22.07-.53-.04-.7-.35-.17-.32-.25-.9-.29-1.74l-.18-2.09s-.29-2.02,1.15-3.32c1.44-1.3,4.04-1.73,4.04-1.73,0,0,1.44-.56,2.94.31,1.5.87.85,4.89.85,4.89,0,0-.89,3.17-.7,4.21.19,1.04,1.7.63,2.09.38-2.63-4.67,3.23-10.03,3.23-10.03,0,0,2.4-2.69,3.66-1.69.66-1.05,1.66-.26,1.91.53.11.35.18.83.03,1.44-.12.51-1.17,5.08-1.17,5.08,0,0,.51,1.09,1.02,1.94.96-.01,1.41,1.42,1.36,2.12ZM221.19,176.38h-5.72v-4.29c0-.88-.31-1.62-.93-2.24-.62-.62-1.37-.93-2.24-.93s-1.62.31-2.23.93c-.61.62-.92,1.37-.92,2.24v72.17c0,.88.3,1.62.92,2.23.61.61,1.36.92,2.23.92s1.62-.3,2.24-.92c.62-.61.93-1.35.93-2.22v-59.35h-3.06v-5.54h8.78v64.93c0,2.43-.86,4.49-2.57,6.18-1.71,1.69-3.76,2.54-6.15,2.54-1.19,0-2.28-.21-3.3-.62-.78.57-1.56.99-2.03,1.3.01,3.63,4.05,2.88,4.05,2.88,0,0-1.27,2.21-3.77,2.02-2.5-.19-3.1-3.12-3.1-3.12,0,0-.08.23-1.86,1.25-1.93,4.89-4.71,3.33-4.71,3.33,0,0-1.73-1.4-.95-3.33,1.11-2.74,2.3-2.5,3.2-2.59-.26-1.17-1.4-1.81-1.4-1.81,0,0-4.72,9.29-7.05,8.32-2.33-.98-1.53-4.21-1.53-4.21,0,0-2.58,4.59-6.22,4.46-3.64-.13-2.79-6.45-2.79-6.45,0,0,.46-2.17,2.2-3.77,1.74-1.6,3.35.1,3.35.1,0,0,2.71-8.44,3.23-9.29.52-.86,1.12-.22,1.12-.22.7.48.53,1.66.53,1.66l-3.73,11.61,2.88-3.04s.59-.74,1.17-1.42c.6-.7,1.14-1.42,1.71-.8.88,1.18.53,2.7.53,2.7,0,0-3.22,5.68-.91,3.24,2.31-2.44,3.44-4.83,4.19-6.45.75-1.62,1.17-1.54,1.46-1.53.29.01.73.48.79.93.07.45.88,1.34,1.8,2.07,1.59,1.25,1.22,3.31,1.22,3.31,0,0,.38-.12,1.99-1.46.3-1,.64-1.81,1-2.48-1.2-1.53-1.81-3.3-1.81-5.31v-72.11c0-2.43.86-4.5,2.57-6.2,1.71-1.7,3.77-2.55,6.18-2.55s4.49.86,6.18,2.57c1.69,1.71,2.54,3.77,2.54,6.18v4.17ZM235.29,120.4l-5.15,5.15.78,10.45-4.58-.42-1.04-12.48,4.58-5.41-1.66-1.04c-3.27,2.47-5.41,5.98-5.41,5.98,0,0,1.07,7.77,1.46,11.49-.81.09-3.54.42-3.54.42l-3.54-12.69,7.95-8.28s1-2.47,4.27-1.26c4.8,1.77,15.68,6.68,19.14,11.53,1.29,1.8.98,3.27-.51,4.95-1.7,1.91-4.51,3.4-4.51,3.4,0,0,.08,7.49-1.32,8.11-1.87.83-2.7-1.18-2.7-1.18l.14-9.41,3.43-5.36-1.14-.83-4.73,5.2.36,10.4-4.16-1.04-.94-11.54,4.68-5.1-1.87-1.04ZM253,267.33s-21.77-19.43-19.95-50.7c1.47-25.19,14.72-39.33,18.15-54.93,3.43-15.6-5.3-24.03-5.3-24.03l-.16-4.89,2.81-1.51s11.39,9.52,11.7,28.86c.31,19.34-4.71,21.52-7.8,36.82-5.51,27.25,10.87,42.44,10.87,42.44l-10.32,27.93Z"/><path class="cls-2" d="M136.05,244.4s.02-.02.03-.03c0-.08.01-.16.01-.24v-71.48c0-.88-.3-1.62-.92-2.24-.61-.62-1.35-.94-2.2-.94h-3.32v74.51c0,1.84,1.49,3.32,3.32,3.32.85,0,1.57-.3,2.17-.9.05-.56.31-1.23.91-2Z"/><path class="cls-2" d="M153.33,236.97c-.57.12-1.1.26-1.59.4v4.09h-4.98l-1.56,9.22s10.88-8.79,11.66-10.22c.78-1.44.62-4.39-3.53-3.49Z"/><path class="cls-2" d="M171.61,343.21c-23.16,0-45.64-4.54-66.8-13.49-20.44-8.64-38.79-21.02-54.54-36.77-15.76-15.76-28.13-34.11-36.77-54.54C4.54,217.24,0,194.77,0,171.61s4.54-45.64,13.49-66.8c8.64-20.44,21.02-38.79,36.77-54.54,15.76-15.76,34.11-28.13,54.54-36.77C125.97,4.54,148.44,0,171.61,0s45.64,4.54,66.8,13.49c20.44,8.64,38.79,21.02,54.54,36.77,15.76,15.76,28.13,34.11,36.77,54.54,8.95,21.16,13.49,43.64,13.49,66.8s-4.54,45.64-13.49,66.8c-8.64,20.44-21.02,38.79-36.77,54.54-15.76,15.76-34.11,28.13-54.54,36.77-21.16,8.95-43.64,13.49-66.8,13.49ZM171.61,17.8C86.8,17.8,17.8,86.8,17.8,171.61s69,153.8,153.8,153.8,153.8-69,153.8-153.8S256.41,17.8,171.61,17.8Z"/><path class="cls-5" d="M143.98,256.68s-4.18,5.51-5.35,5.71c0,0,.05-2.21,2.87-5.58,1.94-2.33,5.96-5.77,10.21-9,0,0,8.28-6.11,8.64-8.84,0-.02,0-.04,0-.06,0,.21-.02.42-.04.64.42-4.25-2.01-7.25-7.69-6.71-5.99.57-14.08,8.33-16.59,11.54-2.5,3.2.85,4.55,1.12,4.46,0,0-5.3-2.59,10.46-11.99,9.36-5.58,12.39-.06,9.27,3.5-.01.03-.03.06-.04.09-.78,1.44-11.66,10.22-11.66,10.22l1.93-11.37-1.97,11.37c-.5.27-3.69,3.24-1.36.39.65-.79.85-4.45,1.72-10.01.33-1.77-1.59,2.5-1.47,2.03-.33,1.27-1.97,10.51-1.97,10.51,0,0-1.64,1.89-3.16,4.02-1.52,2.13-.9,4.8-.29,4.84.62.04,2.01-1.68,2.01-1.68,0,0-2.55,11.63-3.13,15,0,0,0,0,0,0,0,0,1.79.27,3.58-9.45,1.05-5.67,2.85-9.54,2.89-9.45,0-.04.01-.08.02-.12,2.8-2.92,6.31-5.61,9.41-8.17-3.1,2.56-6.64,5.22-9.43,8.14Z"/><path class="cls-5" d="M158.36,252.31c.06-3.2-1.38-3.57-1.38-3.57,0,0-.62-.33-1.13,1.68,0,0-1.91-.16-4.97,3.61-2.24,2.77-2.89,5.55-2.42,7.29-.1-.37-.15-.78-.15-1.22l.09-.78s.48,6.27,6.39-2.11c.84-1.12,1.48-2.13,1.48-2.13,0,0,2.02,4.21,2.8,6.23.26.68-.58.94-1.18.35,0,0,0-.01-.01-.02.2.22.4.35.61.37,1.09.08,1.48-2.11,1.48-2.11,0,0-1.68-4.39-1.62-7.59ZM154.45,254.11c-.88.72-1.58,1.49-2.11,2.21.5-.63,1.17-1.34,2.05-2.09,0,0-.7,3.24-3.24,4.76,0,0,0,0,0,0-.9-.16-1.86-2.51,2.86-6.12.48-.32,1.45-.62,1.87-.54.54.1.54,1.88.54,1.88-1.04.02-1.85-.17-1.96-.1Z"/><path class="cls-5" d="M168.34,251.2c-1.5-.87-2.94-.31-2.94-.31,0,0-2.6.43-4.04,1.73-1.44,1.3-1.15,3.32-1.15,3.32l.18,2.09c.04.84.13,1.42.29,1.74.09.18.23.28.37.33l-.07-.08s-.03-.03-.03-.03l.03.03c.07.06.28.11.41-.9.04-.29.58-1.77.61-2.25.02-.42-.48.17-.48-.43,0-.44,0-.94-.02-1.49-.05-2.26,4.1-2.44,4.1-2.44,0,0,2.87-.06,2.57,2.25,0,.04-1.29,1.87-1.56,2.29-.14,1.18-.3,2.56-.44,3.84-.09-1.44.22-2.92.31-3.29-.12.52-.74,3.37.12,5.1.63,1.28,2.85,1.91,4.94,1.04l-.52.06c-.81.27-1.6.35-2.08.23-1.34-.36-2.33-.7-1.54-4.37.54-2.49,1.79-3.53,1.79-3.53,0,0,.65-4.02-.85-4.89Z"/><path class="cls-5" d="M179.27,257.96c-.52-.85-1.02-1.94-1.02-1.94,0,0,.98-4.28,1.16-5.02-.18.73-1.16,5.02-1.16,5.02l-.89-2.41c.02-.61.1.19,1.09-3.08.72-2.4-.59-2.13-.96-1.57.66-.97,1.66-.24,1.91.54-.25-.79-1.25-1.58-1.91-.53-1.26-1-3.66,1.69-3.66,1.69,0,0-5.86,5.36-3.23,10.03-.39.24-1.9.65-2.09-.38.48,2.51,2.02,2.68,3.41,1.83.35-.82.59-1.81.59-1.81,0,0,1.26-.29,2.51-2.29.2-.31.7-1.61,1.65-1.67.42.07.58.95.95,1.46,1.63,2.25,2.41,7.44-.54,2.71.53,1,1.2,1.94,1.8,1.95,1.3.02,1.73-1.68,1.78-2.38.04-.71-.41-2.14-1.36-2.12ZM175.68,253.02s-.04.18-1.19,2.58c-.76,1.58-1.93,2.76-2.24,2.58h0s-2.08.41,0-3.33c2.4-4.34,3.33-4.09,4.37-3.89-.51,1.18-.94,2.06-.94,2.06Z"/><path class="cls-5" d="M181.44,254.78c.57,3.69,2.19,8.48,10.71-3.1,1.32-1.79,1.65-1.74,1.71-1.7-.09-.25-.22-.5-.39-.74-.58-.62-1.11.1-1.71.8-.58.68-1.17,1.42-1.17,1.42l-2.88,3.04,3.73-11.61-3.72,11.55c-.83.87-1.71,1.57-1.24.07.1-.32-.47-.47-1.11-.86l-1.26,4.27s-.86-.57-.85-1.81h0c-.23-.08-.8-.85-.16-3,1-3.38,3.92-.26,3.99-.47,2.24-6.76,3.81-10.81,2.71-11.21.52-.81,1.11-.19,1.11-.19,0,0-.6-.64-1.12.22-.52.86-3.23,9.29-3.23,9.29,0,0-1.61-1.69-3.34-.1-1.74,1.6-2.2,3.77-2.2,3.77,0,0,0,0,0,0,0,.12.34-.24.43.36Z"/><path class="cls-5" d="M195.33,246c1.59-.69,1.2-1.22.96-1.42.1.06.2.13.28.22-.39-.37-.94-.55-1.51-.46-.97.17-1.62,1.08-1.45,2.05.15.89,1.16,2.02,2.07,2.05-.42-.3-2.15-1.67-.36-2.44Z"/><path class="cls-5" d="M207.15,253.69s.08-.05.12-.08c0,0,0,0,0,0l-1.38.18s.05-1.72.98-1.73c.81.12,3.31-1,2.85-2.46-.09-.3-.62-.42-1.33-.36h0c.14.14.21.35.12.56-.3.74-1.2.91-1.2.91-.03-.65.07-1.07.21-1.32,0,0,0,0,0,0-.28.07-.57.16-.86.28,1.23-2.76,3.35-2.05,4.87-1.03-.1-1.67-2.23-2.04-2.67-1.99-.54.06-2.88.63-4.33,5.42-1.6,1.34-1.99,1.46-1.99,1.46,0,0,.37-2.05-1.22-3.31-.92-.73-1.73-1.62-1.8-2.07-.07-.45-.5-.92-.79-.93-.29,0-.71-.09-1.46,1.53-.75,1.62-1.88,4-4.19,6.45-1.2,1.27-.91.35-.35-.83-.82,1.15-1.63.89-2.31,1.62-.54.58-.4.45-.4.45,0,0,0,0,0,0,0,0-.31,1.26.03,2.45,0,0,0,0,0,0,0,0,.76-.54,2.26-.87,1.81-.39,3.53-2.84,4.85-5.1.74-1.26,1.19-2.22,1.76-2.34.56-.12,1.67.82,1.67.82,0,0,1.47,1.27,1.11,2.85-1.03-.14-1.69-.14-1.69-.14h-.02s0,.02.01.04c-.89.09-2.09-.16-3.2,2.59-.05.13-.09.25-.12.37.6-.99,1.42-1.44,2.38.36.76,1.45.55-1.02,6.82-3.67.05.46.47,5.72,5.31,2.78,0,0-4.04.75-4.05-2.88Z"/><path class="cls-4" d="M138.63,262.39s.05-2.21,2.87-5.58c1.94-2.33,5.96-5.77,10.21-9,0,0,8.28-6.11,8.64-8.84,0-.02,0-.04,0-.06-.01.44-.06.89-.14,1.36-.44,2.64-2.9,4.99-5.83,7.47-3.32,2.81-7.32,5.73-10.41,8.95,0,0-4.18,5.51-5.35,5.71"/><path class="cls-4" d="M137.45,247.02c.25-.32,7.26-6.19,7.26-6.19,0,0-.33.94-.66,2.22-.12.47,1.8-3.8,1.47-2.03-.87,5.56-1.07,9.22-1.72,10.01-2.34,2.85.86-.12,1.36-.39l1.97-11.37s2.05-1.44,6.2-2.34c4.06-.89,4.3,1.94,3.58,3.4,3.12-3.56.09-9.08-9.27-3.5-15.76,9.39-10.46,11.99-10.46,11.99-.25-.86-.08-1.34.28-1.8Z"/><path class="cls-4" d="M149.41,262.78c1.68,1.17,4.02-1.6,4.02-1.6,0,0,2.38-2.89,2.63-3.9.28,1.07,1.08,3.61,1.85,4.39.6.59,1.45.33,1.18-.35-.78-2.02-2.8-6.23-2.8-6.23,0,0-.63,1.01-1.48,2.13-5.91,8.38-6.39,2.11-6.39,2.11l-.09.78c0,1.22.38,2.18,1.08,2.67Z"/><path class="cls-4" d="M141.1,266.3c-1.79,9.72-3.58,9.45-3.58,9.45,0,0,0,0,0,0-.06.35-.1.62-.11.77-.12,1.56.08,2.46.9,2.75.82.29,1.23-.7,1.23-.7,0,0,.66-1.85,1.03-3.65.37-1.81,1.11-6.2,1.11-6.2l1.31-6.45s.52-2.59,1.01-5.42c-.04-.08-1.85,3.79-2.89,9.45Z"/><path class="cls-4" d="M154.01,252.87c-4.73,3.61-3.76,5.96-2.86,6.12-.26-.38.82-2.85,3.3-4.88.11-.08.93.11,1.96.1,0,0,0-1.78-.54-1.88-.42-.08-1.39.22-1.87.54Z"/><path class="cls-4" d="M166.5,257.48s-.44,1.71-.33,3.38c.18-1.57.38-3.3.54-4.62-.1.68-.21,1.24-.21,1.24Z"/><path class="cls-4" d="M165.6,252.49s-4.15.18-4.1,2.44c.01.55.02,1.05.02,1.49,0,.61.5,0,.48.43-.02.48-.57,1.96-.61,2.25-.13,1.01-.34.96-.41.9l.07.08c.11.04.23.05.32.02.22-.07.59-.22.78-.76.11-.3.11-.67.14-1.22.11-1.8.09-2.58.09-2.58,0,0-.03-.25.35-.36.19-.05.99-.37,1.78-.59.82-.22,1.62-.34,1.62-.34,0,0,.24-.07.43-.03.11.02.28.1.3.41.01.4-.08,1.13-.31,2.46,0-.05,1.6-2.33,1.61-2.37.3-2.31-2.57-2.25-2.57-2.25Z"/><path class="cls-4" d="M160.99,260.01l-.03-.03s.01.02.03.03Z"/><path class="cls-4" d="M174.31,261.29c1.5-2.44,1.69-3.16,1.69-3.16,0,0,.48,1.35,1.06,2.39,2.95,4.73,2.18-.46.54-2.71-.37-.5-.53-1.39-.95-1.46-.95.06-1.45,1.36-1.65,1.67-1.25,2-2.51,2.29-2.51,2.29,0,0-.58,2.37-1.23,2.83-.51.36-1.03.62-1.53.76l1.8-.2c1.02-.42,2.01-1.19,2.76-2.42Z"/><path class="cls-4" d="M168.95,263.99c1.34.36,5.27-.94,4.69-3.59-1.43,2.22-4.44,3.57-5.14-.11-.2-1.03.7-4.21.7-4.21,0,0-1.25,1.04-1.79,3.53-.79,3.68.2,4.01,1.54,4.37Z"/><path class="cls-4" d="M178.24,256.02s1.05-4.57,1.17-5.08c.15-.62.08-1.1-.03-1.44-.25-.78-1.25-1.51-1.91-.54.37-.56,1.68-.83.96,1.57-.98,3.27-1.06,2.47-1.09,3.08l.89,2.41Z"/><path class="cls-4" d="M172.25,254.84c-2.07,3.74,0,3.33,0,3.33h0c-.16-.09-.09-.54.37-1.48,1.88-3.79,3.05-3.68,3.05-3.68,0,0,.43-.89.94-2.06-1.05-.2-1.97-.45-4.37,3.89Z"/><path class="cls-4" d="M183.27,256.11c0-.36.08-.77.27-1.25.86-2.12,1.84-1.21,1.84-1.21h0c.64.4,1.21.55,1.11.87-.47,1.51.41.8,1.24-.07l3.72-11.55s.17-1.18-.53-1.66c0,0-.59-.62-1.11.19,1.1.4-.47,4.44-2.71,11.21-.07.2-2.98-2.91-3.99.47-.64,2.15-.07,2.92.16,3Z"/><path class="cls-4" d="M193.46,252.93c.25-.47.46-.84.52-.94,0,0,.08-.32.08-.87s-.19-1.12-.19-1.12c0,0-.21-.36-1.72,1.69-8.52,11.58-10.13,6.79-10.71,3.1-.09-.6-.42-.24-.43-.36,0,0,0,0,0,0,0,0,0,.03,0,.07-.02.22-.04.44-.05.67-.09,1.67,0,5.61,2.85,5.71,2.47.09,4.46-2,5.47-3.35.26-.35.5-.72.74-1.1,0,0,0,0,0,0h0s-.15.15.4-.45c.88-.95,1.97-.23,3.04-3.05Z"/><path class="cls-4" d="M200.59,251.38s-1.11-.94-1.67-.82c-.57.12-1.02,1.08-1.76,2.34-1.33,2.26-3.04,4.71-4.85,5.1-1.5.32-2.26.87-2.26.87,0,0,0,0,0,0,.2.71.64,1.4,1.51,1.76,2.33.98,7.05-8.32,7.05-8.32,0,0,1.11.63,1.39,1.77h.02s.66,0,1.69.14c.36-1.59-1.11-2.85-1.11-2.85Z"/><path class="cls-4" d="M207.43,258.58c2.5.19,3.77-2.02,3.77-2.02-4.84,2.94-5.26-2.32-5.31-2.78-6.27,2.65-6.06,5.12-6.82,3.67-.96-1.81-1.78-1.35-2.38-.36-.43,1.73,1.08,2.96,1.08,2.96,0,0,2.78,1.55,4.71-3.33,1.78-1.03,1.86-1.25,1.86-1.25,0,0,.61,2.92,3.1,3.12Z"/><path class="cls-4" d="M197.12,245.78c-.09-.53-.41-.95-.83-1.21.24.2.63.74-.96,1.42-1.79.77-.06,2.14.36,2.44.08,0,.15,0,.23-.01-.7-.45,1.37-1.68,1.2-2.64Z"/><path class="cls-4" d="M206.66,249.66c.29-.11.58-.21.86-.28.25-.43.64-.38.87-.15.71-.06,1.24.06,1.33.36.46,1.46-2.04,2.58-2.85,2.46-.93.02-.98,1.73-.98,1.73l1.38-.18c1.01-.65,3.13-1.7,3.98-3.6.24-.53.32-.98.29-1.37-1.52-1.03-3.64-1.73-4.87,1.03Z"/></g></svg>