<?xml version="1.0" encoding="UTF-8"?><svg id="Calque_2" xmlns="http://www.w3.org/2000/svg" viewBox="0 0 106.71 120.8"><defs><style>.cls-1{fill:#fff;}.cls-1,.cls-2{stroke-width:0px;}.cls-2{fill:#ea5c9c;}</style></defs><g id="Calque_1-2"><path class="cls-2" d="M94.36,30.84c-.77-.4-1.52-.84-2.25-1.31-2.12-1.4-4.06-3.05-5.79-4.92-4.31-4.94-5.93-9.94-6.52-13.45h.02c-.5-2.91-.29-4.79-.26-4.79h-19.65v75.99c0,1.02,0,2.03-.04,3.02,0,.12-.01.24-.02.37,0,.05,0,.11-.01.17v.04c-.42,5.54-3.57,10.5-8.4,13.24-2.48,1.41-5.28,2.15-8.13,2.15-9.16,0-16.58-7.47-16.58-16.69s7.42-16.69,16.58-16.69c1.73,0,3.46.27,5.1.81l.02-20.01c-10.11-1.31-20.31,1.68-28.13,8.23-3.39,2.94-6.23,6.45-8.41,10.38-.83,1.43-3.96,7.18-4.34,16.51-.24,5.29,1.35,10.78,2.11,13.05v.05c.48,1.33,2.32,5.89,5.33,9.73,2.43,3.08,5.3,5.79,8.51,8.03v-.05l.05.05c9.51,6.46,20.06,6.04,20.06,6.04,1.83-.07,7.94,0,14.89-3.29,7.7-3.65,12.09-9.09,12.09-9.09,2.8-3.25,5.03-6.95,6.59-10.95,1.78-4.67,2.37-10.28,2.37-12.52v-40.31c.24.14,3.41,2.24,3.41,2.24,0,0,4.57,2.93,11.71,4.84,5.12,1.36,12.02,1.64,12.02,1.64v-19.51c-2.42.26-7.33-.5-12.35-3.01Z"/><path class="cls-1" d="M86.82,24.47c-.77-.4-1.52-.84-2.25-1.31-2.12-1.4-4.06-3.05-5.79-4.92-4.31-4.94-5.93-9.94-6.52-13.45h.02c-.5-2.91-.29-4.79-.26-4.79h-19.65v75.99c0,1.02,0,2.03-.04,3.02,0,.12-.01.24-.02.37,0,.05,0,.11-.01.17v.04c-.42,5.54-3.57,10.5-8.4,13.24-2.48,1.41-5.28,2.15-8.13,2.15-9.16,0-16.58-7.47-16.58-16.69s7.42-16.69,16.58-16.69c1.73,0,3.46.27,5.1.81l.02-20.01c-10.11-1.31-20.31,1.68-28.13,8.23-3.39,2.94-6.23,6.45-8.41,10.38-.83,1.43-3.96,7.18-4.34,16.51-.24,5.29,1.35,10.78,2.11,13.05v.05c.48,1.33,2.32,5.89,5.33,9.73,2.43,3.08,5.3,5.79,8.51,8.03v-.05l.05.05c9.51,6.46,20.06,6.04,20.06,6.04,1.83-.07,7.94,0,14.89-3.29,7.7-3.65,12.09-9.09,12.09-9.09,2.8-3.25,5.03-6.95,6.59-10.95,1.78-4.67,2.37-10.28,2.37-12.52v-40.31c.24.14,3.41,2.24,3.41,2.24,0,0,4.57,2.93,11.71,4.84,5.12,1.36,12.02,1.64,12.02,1.64v-19.51c-2.42.26-7.33-.5-12.35-3.01Z"/></g></svg>