<?xml version="1.0" encoding="UTF-8"?><svg id="Calque_2" xmlns="http://www.w3.org/2000/svg" viewBox="0 0 122.77 115.84"><defs><style>.cls-1{fill:#ea5c9c;}.cls-1,.cls-2{fill-rule:evenodd;stroke-width:0px;}.cls-2{fill:#fff;}</style></defs><g id="Calque_1-2"><g id="Page-1"><g id="Dribbble-Light-Preview"><g id="icons"><path id="snapchat-_136_" class="cls-1" d="M65.87,115.84c-7.41,0-10.65-1.67-16.95-6.18-5.7-4.08-9.36-6.32-19.95-4.23-4.13.82-4.05.44-4.94-3.69-.47-2.17-.81-3.5-1.62-3.63-8.6-1.34-13.69-3.32-14.7-5.72-.48-1.15.09-2.06.98-2.21,11.22-1.87,20.29-11.28,24.22-20.56.01-.02.02-.05.03-.06,1-2.04,1.19-3.8.59-5.24-1.35-3.23-5.72-3.9-8.84-5.17-2.15-.86-5.7-2.68-5.23-5.19.43-2.3,4.11-3.76,6.08-2.82,4.95,2.35,8.91,1.63,10.1.52-.06-1.12.69-2.34.69-3.49,0-7.94-2.01-17.83.5-23.5,10.79-24.49,46.79-24.36,57.52-.01,2.5,5.67,1.88,15.57,1.39,23.52l-.02.38c-.07,1.08-.13,2.1-.18,3.09.23.22,1.16.96,3.05,1.04,1.61-.06,3.46-.59,5.5-1.56,2.4-1.14,6.73.6,6.78,3.22.02,1.22-.87,3.04-5.27,4.79-3.12,1.25-7.49,1.94-8.84,5.17-.6,1.43-.41,3.2.59,5.23.01.02.02.05.03.07.31.73,7.71,17.8,24.22,20.56.7.12,1.2.75,1.16,1.46-.02.26-.07.51-.18.76-1.01,2.39-6.09,4.36-14.7,5.7-.81.13-1.15,1.45-1.61,3.61-.71,3.29-.6,4.42-4.94,3.56-10.47-2.06-14.44.43-19.95,4.37-4.06,2.9-8.64,6.2-15.5,6.2"/></g></g></g><g id="Page-1-2"><g id="Dribbble-Light-Preview-2"><g id="icons-2"><path id="snapchat-_136_-2" class="cls-2" d="M58.34,109.47c-7.41,0-10.65-1.67-16.95-6.18-5.7-4.08-9.36-6.32-19.95-4.23-4.13.82-4.05.44-4.94-3.69-.47-2.17-.81-3.5-1.62-3.63-8.6-1.34-13.69-3.32-14.7-5.72-.48-1.15.09-2.06.98-2.21,11.22-1.87,20.29-11.28,24.22-20.56.01-.02.02-.05.03-.06,1-2.04,1.19-3.8.59-5.24-1.35-3.23-5.72-3.9-8.84-5.17-2.15-.86-5.7-2.68-5.23-5.19.43-2.3,4.11-3.76,6.08-2.82,4.95,2.35,8.91,1.63,10.1.52-.06-1.12.69-2.34.69-3.49,0-7.94-2.01-17.83.5-23.5,10.79-24.49,46.79-24.36,57.52-.01,2.5,5.67,1.88,15.57,1.39,23.52l-.02.38c-.07,1.08-.13,2.1-.18,3.09.23.22,1.16.96,3.05,1.04,1.61-.06,3.46-.59,5.5-1.56,2.4-1.14,6.73.6,6.78,3.22.02,1.22-.87,3.04-5.27,4.79-3.12,1.25-7.49,1.94-8.84,5.17-.6,1.43-.41,3.2.59,5.23.01.02.02.05.03.07.31.73,7.71,17.8,24.22,20.56.7.12,1.2.75,1.16,1.46-.02.26-.07.51-.18.76-1.01,2.39-6.09,4.36-14.7,5.7-.81.13-1.15,1.45-1.61,3.61-.71,3.29-.6,4.42-4.94,3.56-10.47-2.06-14.44.43-19.95,4.37-4.06,2.9-8.64,6.2-15.5,6.2"/></g></g></g></g></svg>